<svg width="24" height="24" viewBox="0 0 24 24" fill="none" xmlns="http://www.w3.org/2000/svg">
<path d="M18 2H6C5.46957 2 4.96086 2.21071 4.58579 2.58579C4.21071 2.96086 4 3.46957 4 4V20C4 20.5304 4.21071 21.0391 4.58579 21.4142C4.96086 21.7893 5.46957 22 6 22H13.17C13.4339 22.0002 13.6953 21.9482 13.939 21.8469C14.1827 21.7457 14.4039 21.5972 14.59 21.41L19.41 16.59C19.5972 16.4039 19.7457 16.1827 19.8469 15.939C19.9482 15.6953 20.0002 15.4339 20 15.17V4C20 3.46957 19.7893 2.96086 19.4142 2.58579C19.0391 2.21071 18.5304 2 18 2ZM7 6.5C7 6.36739 7.05268 6.24021 7.14645 6.14645C7.24021 6.05268 7.36739 6 7.5 6H16.5C16.6326 6 16.7598 6.05268 16.8536 6.14645C16.9473 6.24021 17 6.36739 17 6.5V7.5C17 7.63261 16.9473 7.75979 16.8536 7.85355C16.7598 7.94732 16.6326 8 16.5 8H7.5C7.36739 8 7.24021 7.94732 7.14645 7.85355C7.05268 7.75979 7 7.63261 7 7.5V6.5ZM12.5 12H7.5C7.36739 12 7.24021 11.9473 7.14645 11.8536C7.05268 11.7598 7 11.6326 7 11.5V10.5C7 10.3674 7.05268 10.2402 7.14645 10.1464C7.24021 10.0527 7.36739 10 7.5 10H12.5C12.6326 10 12.7598 10.0527 12.8536 10.1464C12.9473 10.2402 13 10.3674 13 10.5V11.5C13 11.6326 12.9473 11.7598 12.8536 11.8536C12.7598 11.9473 12.6326 12 12.5 12ZM13 20.18V16C13 15.7348 13.1054 15.4804 13.2929 15.2929C13.4804 15.1054 13.7348 15 14 15H18.18L13 20.18Z" fill="#1BF698"/>
</svg>
