<svg width="24" height="24" viewBox="0 0 24 24" fill="none" xmlns="http://www.w3.org/2000/svg">
<path d="M4 5C4 4.44772 4.44772 4 5 4H7.15287C7.64171 4 8.0589 4.35341 8.13927 4.8356L8.87858 9.27147C8.95075 9.70451 8.73206 10.134 8.3394 10.3303L6.79126 11.1044C7.90756 13.8783 10.1217 16.0924 12.8956 17.2087L13.6697 15.6606C13.866 15.2679 14.2955 15.0492 14.7285 15.1214L19.1644 15.8607C19.6466 15.9411 20 16.3583 20 16.8471V19C20 19.5523 19.5523 20 19 20H17C9.8203 20 4 14.1797 4 7V5Z" fill="#0AEB8A"/>
</svg>
