<svg width="24" height="24" viewBox="0 0 24 24" fill="none" xmlns="http://www.w3.org/2000/svg">
<path d="M1 17.2442V6.75581C1.00397 5.2305 1.61166 3.76879 2.69023 2.69023C3.76879 1.61166 5.2305 1.00397 6.75581 1L17.2442 1C18.7695 1.00397 20.2312 1.61166 21.3098 2.69023C22.3883 3.76879 22.996 5.2305 23 6.75581V17.2442C22.996 18.7695 22.3883 20.2312 21.3098 21.3098C20.2312 22.3883 18.7695 22.996 17.2442 23H13.723L11.8721 22.5486L10.2845 23H6.75581C5.2305 22.996 3.76879 22.3883 2.69023 21.3098C1.61166 20.2312 1.00397 18.7695 1 17.2442H1Z" fill="#2C64F6"/>
<path d="M16.2808 15.5438L16.8 12.3612H13.7227V10.2996C13.7014 10.0624 13.7338 9.82348 13.8174 9.60049C13.901 9.3775 14.0337 9.17618 14.2057 9.01144C14.3776 8.84669 14.5845 8.72275 14.8109 8.64878C15.0372 8.57482 15.2773 8.55274 15.5134 8.58416H16.8978V5.87554C16.0842 5.74186 15.2619 5.66893 14.4375 5.65735C11.9245 5.65735 10.2843 7.16214 10.2843 9.93847V12.3612H7.48535V15.5438H10.2843V23H13.7227V15.5438H16.2808Z" fill="white"/>
</svg>
