<svg width="24" height="24" viewBox="0 0 24 24" fill="none" xmlns="http://www.w3.org/2000/svg">
<path d="M12 11.9999C14.8406 11.9999 17.1429 9.69772 17.1429 6.85709C17.1429 4.01647 14.8406 1.71423 12 1.71423C9.15938 1.71423 6.85714 4.01647 6.85714 6.85709C6.85714 9.69772 9.15938 11.9999 12 11.9999ZM15.6 13.2857H14.929C14.0371 13.6955 13.0446 13.9285 12 13.9285C10.9554 13.9285 9.96696 13.6955 9.07098 13.2857H8.4C5.41875 13.2857 3 15.7044 3 18.6857V20.3571C3 21.4218 3.86384 22.2857 4.92857 22.2857H19.0714C20.1362 22.2857 21 21.4218 21 20.3571V18.6857C21 15.7044 18.5813 13.2857 15.6 13.2857Z" fill="#0AEB8A"/>
</svg>
