<svg width="24" height="24" viewBox="0 0 24 24" fill="none" xmlns="http://www.w3.org/2000/svg">
<g clip-path="url(#clip0_496_8377)">
<path d="M18.0001 4C18.1506 4 18.2992 4.034 18.4348 4.09945C18.5704 4.1649 18.6894 4.26012 18.7831 4.378L18.8571 4.486L21.8571 9.486C21.9553 9.64995 22.0045 9.83863 21.9988 10.0297C21.9932 10.2207 21.9329 10.4062 21.8251 10.564L21.7451 10.667L13.2151 20.2C13.0567 20.3616 12.8676 20.4899 12.659 20.5775C12.4504 20.6651 12.2263 20.7101 12.0001 20.71C11.6001 20.71 11.2151 20.57 10.8901 20.293L10.7551 20.167L2.25506 10.667C2.12719 10.5243 2.04299 10.3479 2.0125 10.1587C1.98201 9.96958 2.0065 9.77564 2.08306 9.6L2.14306 9.485L5.15606 4.463L5.22006 4.373C5.26584 4.31606 5.31783 4.26441 5.37506 4.219L5.46406 4.155L5.55206 4.105L5.60206 4.082L5.66206 4.057L5.77106 4.025L5.88306 4.005L6.00006 4H18.0001ZM9.11406 7.943C8.88673 7.80686 8.61465 7.76652 8.35759 7.83083C8.10054 7.89514 7.87951 8.05885 7.74306 8.286L7.14306 9.286L7.08306 9.402C7.00653 9.57848 6.98252 9.77329 7.01391 9.96308C7.0453 10.1529 7.13077 10.3296 7.26006 10.472L9.26006 12.672L9.35006 12.76C9.53517 12.9184 9.77174 13.0038 10.0153 13.0001C10.2589 12.9964 10.4928 12.9039 10.6731 12.74L10.7601 12.65C10.9185 12.4649 11.0038 12.2283 11.0002 11.9847C10.9965 11.7411 10.904 11.5072 10.7401 11.327L9.23906 9.677L9.45706 9.314L9.51206 9.211C9.61256 8.98758 9.62754 8.73505 9.55418 8.50132C9.48081 8.26759 9.3242 8.06892 9.11406 7.943Z" fill="#1BF698"/>
</g>
<defs>
<clipPath id="clip0_496_8377">
<rect width="24" height="24" fill="white"/>
</clipPath>
</defs>
</svg>
