<svg width="24" height="24" viewBox="0 0 24 24" fill="none" xmlns="http://www.w3.org/2000/svg">
<path d="M6.18 21.85C6.22465 21.898 6.27885 21.9362 6.33913 21.962C6.39941 21.9879 6.46442 22.0008 6.53 22H6.82C6.88558 22.0008 6.95059 21.9879 7.01087 21.962C7.07115 21.9362 7.12535 21.898 7.17 21.85L9 20C9.09515 19.9078 9.22247 19.8562 9.355 19.8562C9.48753 19.8562 9.61485 19.9078 9.71 20L11.52 21.81C11.5646 21.858 11.6189 21.8962 11.6791 21.922C11.7394 21.9479 11.8044 21.9608 11.87 21.96H12.16C12.2256 21.9608 12.2906 21.9479 12.3509 21.922C12.4111 21.8962 12.4654 21.858 12.51 21.81L14.32 20C14.4135 19.9164 14.5346 19.8701 14.66 19.8701C14.7854 19.8701 14.9065 19.9164 15 20L16.81 21.81C16.8546 21.858 16.9089 21.8962 16.9691 21.922C17.0294 21.9479 17.0944 21.9608 17.16 21.96H17.45C17.5156 21.9608 17.5806 21.9479 17.6409 21.922C17.7011 21.8962 17.7554 21.858 17.8 21.81L19.71 20C19.8947 19.8137 19.9989 19.5623 20 19.3V3C20 2.73478 19.8946 2.48043 19.7071 2.29289C19.5196 2.10536 19.2652 2 19 2H5C4.73478 2 4.48043 2.10536 4.29289 2.29289C4.10536 2.48043 4 2.73478 4 3V19.26C4.00368 19.5248 4.10727 19.7784 4.29 19.97L6.18 21.85ZM13 13.5C13 13.6326 12.9473 13.7598 12.8536 13.8536C12.7598 13.9473 12.6326 14 12.5 14H8.5C8.36739 14 8.24021 13.9473 8.14645 13.8536C8.05268 13.7598 8 13.6326 8 13.5V12.5C8 12.3674 8.05268 12.2402 8.14645 12.1464C8.24021 12.0527 8.36739 12 8.5 12H12.5C12.6326 12 12.7598 12.0527 12.8536 12.1464C12.9473 12.2402 13 12.3674 13 12.5V13.5ZM16 9.5C16 9.63261 15.9473 9.75979 15.8536 9.85355C15.7598 9.94732 15.6326 10 15.5 10H8.5C8.36739 10 8.24021 9.94732 8.14645 9.85355C8.05268 9.75979 8 9.63261 8 9.5V8.5C8 8.36739 8.05268 8.24021 8.14645 8.14645C8.24021 8.05268 8.36739 8 8.5 8H15.5C15.6326 8 15.7598 8.05268 15.8536 8.14645C15.9473 8.24021 16 8.36739 16 8.5V9.5Z" fill="#FFC218"/>
</svg>
