<svg width="24" height="24" viewBox="0 0 24 24" fill="none" xmlns="http://www.w3.org/2000/svg">
<path fill-rule="evenodd" clip-rule="evenodd" d="M4.20833 2C3.81713 2 3.5 2.3198 3.5 2.71429C3.5 3.10877 3.81713 3.42857 4.20833 3.42857H5.625V4.85714C5.62441 7.33251 7.03329 9.58833 9.24742 10.6571C9.65683 10.8557 9.875 11.1957 9.875 11.5V12.5C9.875 12.8043 9.65825 13.1443 9.24742 13.3429C7.03329 14.4117 5.62441 16.6675 5.625 19.1429V20.5714H4.20833C3.81713 20.5714 3.5 20.8912 3.5 21.2857C3.5 21.6802 3.81713 22 4.20833 22H19.7917C20.1829 22 20.5 21.6802 20.5 21.2857C20.5 20.8912 20.1829 20.5714 19.7917 20.5714H18.375V19.1429C18.3756 16.6675 16.9667 14.4117 14.7526 13.3429C14.3432 13.1443 14.125 12.8043 14.125 12.5V11.5C14.125 11.1957 14.3418 10.8557 14.7526 10.6571C16.9667 9.58833 18.3756 7.33251 18.375 4.85714V3.42857H19.7917C20.1829 3.42857 20.5 3.10877 20.5 2.71429C20.5 2.3198 20.1829 2 19.7917 2H4.20833ZM7.04167 4.85714V3.42857H16.9583V4.85714C16.9589 6.78262 15.8629 8.53732 14.1406 9.36857C13.3855 9.73429 12.7083 10.4986 12.7083 11.5V12.5C12.7083 12.5 12.4533 12.7143 12 12.7143C11.5467 12.7143 11.2917 12.5014 11.2917 12.5014V11.4986C11.2917 10.4986 10.6145 9.73429 9.85942 9.36857C8.13709 8.53732 7.04114 6.78262 7.04167 4.85714Z" fill="#22262F"/>
</svg>
