<svg width="16" height="16" viewBox="0 0 16 16" fill="none" xmlns="http://www.w3.org/2000/svg">
<g clip-path="url(#clip0_288_1990)">
<path d="M6 7.33334C6 7.86377 6.21071 8.37248 6.58579 8.74755C6.96086 9.12262 7.46957 9.33334 8 9.33334C8.53043 9.33334 9.03914 9.12262 9.41421 8.74755C9.78929 8.37248 10 7.86377 10 7.33334C10 6.8029 9.78929 6.29419 9.41421 5.91912C9.03914 5.54405 8.53043 5.33334 8 5.33334C7.46957 5.33334 6.96086 5.54405 6.58579 5.91912C6.21071 6.29419 6 6.8029 6 7.33334Z" stroke="#FFC218" stroke-width="1.2" stroke-linecap="round" stroke-linejoin="round"/>
<path d="M11.7717 11.1047L8.94299 13.9333C8.69298 14.1831 8.35405 14.3234 8.00066 14.3234C7.64727 14.3234 7.30834 14.1831 7.05833 13.9333L4.22899 11.1047C3.48314 10.3588 2.97522 9.40846 2.76945 8.3739C2.56369 7.33935 2.66932 6.26701 3.073 5.29248C3.47667 4.31796 4.16026 3.48502 5.03732 2.899C5.91437 2.31298 6.94551 2.00019 8.00033 2.00019C9.05515 2.00019 10.0863 2.31298 10.9633 2.899C11.8404 3.48502 12.524 4.31796 12.9277 5.29248C13.3313 6.26701 13.437 7.33935 13.2312 8.3739C13.0254 9.40846 12.5175 10.3588 11.7717 11.1047Z" stroke="#FFC218" stroke-width="1.2" stroke-linecap="round" stroke-linejoin="round"/>
</g>
<defs>
<clipPath id="clip0_288_1990">
<rect width="16" height="16" fill="white"/>
</clipPath>
</defs>
</svg>
