<svg width="20" height="20" viewBox="0 0 20 20" fill="none" xmlns="http://www.w3.org/2000/svg">
<g clip-path="url(#clip0_288_1955)">
<path d="M4.99967 5.83334H14.1663C14.6084 5.83334 15.0323 6.00893 15.3449 6.32149C15.6574 6.63405 15.833 7.05798 15.833 7.5V7.91667C15.833 8.02718 15.8769 8.13316 15.955 8.2113C16.0332 8.28944 16.1392 8.33334 16.2497 8.33334C16.3602 8.33334 16.4662 8.37723 16.5443 8.45537C16.6224 8.53351 16.6663 8.6395 16.6663 8.75V11.25C16.6663 11.3605 16.6224 11.4665 16.5443 11.5446C16.4662 11.6228 16.3602 11.6667 16.2497 11.6667C16.1392 11.6667 16.0332 11.7106 15.955 11.7887C15.8769 11.8668 15.833 11.9728 15.833 12.0833V12.5C15.833 12.942 15.6574 13.366 15.3449 13.6785C15.0323 13.9911 14.6084 14.1667 14.1663 14.1667H4.99967C4.55765 14.1667 4.13372 13.9911 3.82116 13.6785C3.5086 13.366 3.33301 12.942 3.33301 12.5V7.5C3.33301 7.05798 3.5086 6.63405 3.82116 6.32149C4.13372 6.00893 4.55765 5.83334 4.99967 5.83334Z" stroke="#1BF698" stroke-width="1.5" stroke-linecap="round" stroke-linejoin="round"/>
<path d="M5.83301 8.33334V11.6667" stroke="#1BF698" stroke-width="1.5" stroke-linecap="round" stroke-linejoin="round"/>
<path d="M8.33301 8.33334V11.6667" stroke="#1BF698" stroke-width="1.5" stroke-linecap="round" stroke-linejoin="round"/>
</g>
<defs>
<clipPath id="clip0_288_1955">
<rect width="20" height="20" fill="white"/>
</clipPath>
</defs>
</svg>
