<svg width="20" height="20" viewBox="0 0 20 20" fill="none" xmlns="http://www.w3.org/2000/svg">
<g clip-path="url(#clip0_737_5511)">
<path d="M7.34419 9.67675C7.72502 9.36008 8.10919 9.36008 8.49919 9.68591L8.58919 9.76758L12.7442 13.9226L12.8225 13.9917C12.9829 14.116 13.183 14.1776 13.3855 14.1648C13.588 14.152 13.7788 14.0658 13.9223 13.9224C14.0658 13.7789 14.152 13.588 14.1647 13.3856C14.1775 13.1831 14.116 12.9829 13.9917 12.8226L13.9225 12.7442L12.8459 11.6667L13.0892 11.4226L13.1775 11.3434C13.5584 11.0267 13.9425 11.0267 14.3325 11.3526L14.4225 11.4342L18.3175 15.3301C18.2386 16.1236 17.8778 16.8626 17.3007 17.4129C16.7235 17.9632 15.9681 18.2883 15.1717 18.3293L15 18.3334H5.00002C4.17328 18.3334 3.37605 18.0261 2.76315 17.4712C2.15025 16.9164 1.76541 16.1536 1.68335 15.3309L7.25585 9.75591L7.34419 9.67675ZM15 1.66675C15.8552 1.66675 16.6777 1.99544 17.2974 2.58485C17.917 3.17426 18.2864 3.97928 18.3292 4.83342L18.3334 5.00008V12.9876L15.5892 10.2442L15.4642 10.1301C14.4175 9.21758 13.0892 9.21592 12.0509 10.1159L11.9225 10.2326L11.6667 10.4876L9.75585 8.57758L9.63085 8.46342C8.58419 7.55092 7.25585 7.54925 6.21752 8.44925L6.08919 8.56592L1.66669 12.9876V5.00008C1.66669 4.14488 1.99538 3.32239 2.58479 2.70274C3.1742 2.08309 3.97922 1.71367 4.83335 1.67091L5.00002 1.66675H15ZM12.5084 5.83342L12.4025 5.83925C12.2 5.86334 12.0133 5.96088 11.8779 6.11339C11.7424 6.26589 11.6676 6.46278 11.6676 6.66675C11.6676 6.87072 11.7424 7.0676 11.8779 7.22011C12.0133 7.37262 12.2 7.47016 12.4025 7.49425L12.5 7.50008L12.6059 7.49425C12.8084 7.47016 12.9951 7.37262 13.1305 7.22011C13.266 7.0676 13.3408 6.87072 13.3408 6.66675C13.3408 6.46278 13.266 6.26589 13.1305 6.11339C12.9951 5.96088 12.8084 5.86334 12.6059 5.83925L12.5084 5.83342Z" fill="white"/>
</g>
<defs>
<clipPath id="clip0_737_5511">
<rect width="20" height="20" fill="white"/>
</clipPath>
</defs>
</svg>
