<svg width="20" height="20" viewBox="0 0 20 20" fill="none" xmlns="http://www.w3.org/2000/svg">
<path fill-rule="evenodd" clip-rule="evenodd" d="M15.625 7.70834C15.3134 8.01999 15.1575 8.17582 14.9854 8.2514C14.7292 8.36393 14.4375 8.36393 14.1813 8.2514C14.0092 8.17582 13.8533 8.01999 13.5417 7.70834L12.2917 6.45834C11.98 6.1467 11.8242 5.99087 11.7486 5.81877C11.6361 5.56252 11.6361 5.27084 11.7486 5.01459C11.8242 4.84249 11.98 4.68666 12.2917 4.37501C12.6033 4.06336 12.7592 3.90754 12.9313 3.83196C13.1875 3.71943 13.4792 3.71943 13.7354 3.83196C13.9075 3.90754 14.0634 4.06336 14.375 4.37501L15.625 5.62501C15.9367 5.93666 16.0925 6.09249 16.1681 6.26459C16.2806 6.52084 16.2806 6.81252 16.1681 7.06877C16.0925 7.24087 15.9367 7.3967 15.625 7.70834ZM5.33334 16.6667C4.39053 16.6667 3.91913 16.6667 3.62624 16.3738C3.33334 16.0809 3.33334 15.6095 3.33334 14.6667V14.1618C3.33334 13.753 3.33334 13.5486 3.40946 13.3649C3.48558 13.1811 3.6301 13.0366 3.91913 12.7476L9.00246 7.66422C9.66913 6.99756 10.0025 6.66422 10.4167 6.66422C10.8309 6.66422 11.1642 6.99756 11.8309 7.66422L12.3358 8.16913C13.0025 8.8358 13.3358 9.16913 13.3358 9.58334C13.3358 9.99756 13.0025 10.3309 12.3358 10.9976L7.25246 16.0809C6.96343 16.3699 6.81892 16.5144 6.63515 16.5906C6.45138 16.6667 6.247 16.6667 5.83825 16.6667H5.33334Z" fill="white"/>
</svg>
