<svg width="20" height="20" viewBox="0 0 20 20" fill="none" xmlns="http://www.w3.org/2000/svg">
<g clip-path="url(#clip0_288_2179)">
<path d="M15.8334 7.25833L11.3892 3.80167C10.9992 3.49826 10.5192 3.33353 10.0251 3.33353C9.53094 3.33353 9.05091 3.49826 8.6609 3.80167L4.2159 7.25833C3.94877 7.46607 3.73264 7.73211 3.58403 8.03612C3.43541 8.34014 3.35824 8.6741 3.3584 9.0125V15.0125C3.3584 15.4545 3.53399 15.8785 3.84655 16.191C4.15911 16.5036 4.58304 16.6792 5.02507 16.6792H15.0251C15.4671 16.6792 15.891 16.5036 16.2036 16.191C16.5161 15.8785 16.6917 15.4545 16.6917 15.0125V9.0125C16.6917 8.32667 16.3751 7.67917 15.8334 7.25833Z" stroke="white" stroke-width="1.2" stroke-linecap="round" stroke-linejoin="round"/>
<path d="M13.3337 12.5C11.492 13.6108 8.50699 13.6108 6.66699 12.5" stroke="white" stroke-width="1.2" stroke-linecap="round" stroke-linejoin="round"/>
</g>
<defs>
<clipPath id="clip0_288_2179">
<rect width="20" height="20" fill="white"/>
</clipPath>
</defs>
</svg>
