<svg width="24" height="24" viewBox="0 0 24 24" fill="none" xmlns="http://www.w3.org/2000/svg">
<g opacity="0.5">
<path d="M20.5965 15.8968C19.3802 15.4329 18.5665 14.3192 18.4747 12.9909C18.3847 11.6966 19.0138 10.5471 20.1574 9.91551L21.1083 9.39026L20.4292 8.53776C19.2883 7.10501 17.6556 6.24884 16.062 6.24884C14.9574 6.24884 14.1911 6.54034 13.5756 6.77501C13.1411 6.94092 12.7983 7.07109 12.422 7.07109C11.9929 7.07109 11.5692 6.91892 11.0783 6.74292C10.4347 6.51192 9.70561 6.24976 8.76925 6.24976C6.96016 6.24976 5.13561 7.33876 4.00834 9.08959C2.32561 11.7012 2.78743 16.1791 5.10652 19.7376C6.02561 21.1474 7.31379 22.7672 9.13834 22.7837H9.17379C10.6674 22.7837 10.9947 21.9807 12.4447 21.9715C14.0283 22.0467 14.2283 22.7901 15.7074 22.78C17.4902 22.7635 18.7756 21.1566 19.7974 19.5863C20.4011 18.6633 20.6347 18.1802 21.1047 17.1315L21.5029 16.2423L20.5965 15.8968Z" fill="white"/>
<path d="M14.9112 3.94617C15.5021 3.18167 15.9503 2.10275 15.7876 1C14.8221 1.06692 13.6949 1.68567 13.0358 2.49233C12.4376 3.22475 11.9439 4.31008 12.1358 5.36608C13.1885 5.39908 14.2785 4.76475 14.9112 3.94617Z" fill="white"/>
</g>
</svg>
