<svg width="16" height="16" viewBox="0 0 16 16" fill="none" xmlns="http://www.w3.org/2000/svg">
<path d="M12.0601 6.81333L7.39346 14.4267C7.34841 14.4995 7.28565 14.5596 7.21104 14.6016C7.13643 14.6436 7.0524 14.666 6.9668 14.6667H6.83346C6.78726 14.6666 6.74155 14.6571 6.69914 14.6387C6.65673 14.6204 6.61851 14.5936 6.5868 14.56C6.55527 14.5263 6.53125 14.4863 6.51632 14.4426C6.50138 14.399 6.49586 14.3526 6.50013 14.3067L6.87346 10H4.49346C4.40545 9.99905 4.3192 9.97519 4.24322 9.93077C4.16723 9.88635 4.10413 9.8229 4.06013 9.74667L3.93346 9.52667C3.90225 9.47546 3.88574 9.41664 3.88574 9.35667C3.88574 9.2967 3.90225 9.23788 3.93346 9.18667L8.60013 1.57333C8.64636 1.49861 8.71123 1.4372 8.78838 1.39512C8.86552 1.35304 8.95227 1.33175 9.04013 1.33333H9.17346C9.21967 1.33342 9.26537 1.34292 9.30778 1.36126C9.35019 1.3796 9.38842 1.40639 9.42013 1.44C9.45165 1.47371 9.47567 1.51371 9.49061 1.55738C9.50555 1.60105 9.51107 1.64738 9.5068 1.69333L9.1268 6H11.5068C11.5948 6.00095 11.6811 6.02481 11.757 6.06923C11.833 6.11366 11.8961 6.17711 11.9401 6.25333L12.0668 6.47333C12.097 6.52516 12.1124 6.5843 12.1112 6.64427C12.11 6.70424 12.0924 6.76274 12.0601 6.81333Z" fill="#1BF698"/>
</svg>
