<svg width="20" height="20" viewBox="0 0 20 20" fill="none" xmlns="http://www.w3.org/2000/svg">
<g clip-path="url(#clip0_288_2244)">
<path d="M7.50033 3.33334H5.83366C5.39163 3.33334 4.96771 3.50894 4.65515 3.8215C4.34259 4.13406 4.16699 4.55798 4.16699 5.00001V15C4.16699 15.442 4.34259 15.866 4.65515 16.1785C4.96771 16.4911 5.39163 16.6667 5.83366 16.6667H7.50033C7.94235 16.6667 8.36628 16.4911 8.67884 16.1785C8.9914 15.866 9.16699 15.442 9.16699 15V5.00001C9.16699 4.55798 8.9914 4.13406 8.67884 3.8215C8.36628 3.50894 7.94235 3.33334 7.50033 3.33334Z" fill="#061620"/>
<path d="M14.1663 3.33334H12.4997C12.0576 3.33334 11.6337 3.50894 11.3212 3.8215C11.0086 4.13406 10.833 4.55798 10.833 5.00001V15C10.833 15.442 11.0086 15.866 11.3212 16.1785C11.6337 16.4911 12.0576 16.6667 12.4997 16.6667H14.1663C14.6084 16.6667 15.0323 16.4911 15.3449 16.1785C15.6574 15.866 15.833 15.442 15.833 15V5.00001C15.833 4.55798 15.6574 4.13406 15.3449 3.8215C15.0323 3.50894 14.6084 3.33334 14.1663 3.33334Z" fill="#061620"/>
</g>
<defs>
<clipPath id="clip0_288_2244">
<rect width="20" height="20" fill="white"/>
</clipPath>
</defs>
</svg>
