<svg width="20" height="20" viewBox="0 0 20 20" fill="none" xmlns="http://www.w3.org/2000/svg">
<g clip-path="url(#clip0_288_1939)">
<path d="M14.9996 3.33334C15.1251 3.33335 15.2489 3.36167 15.3619 3.41622C15.4749 3.47076 15.5741 3.55011 15.6521 3.64834L15.7138 3.73834L18.2138 7.90501C18.2956 8.04164 18.3366 8.19887 18.3319 8.35808C18.3272 8.51729 18.2769 8.67181 18.1871 8.80334L18.1204 8.88918L11.0121 16.8333C10.8801 16.968 10.7226 17.075 10.5487 17.1479C10.3748 17.2209 10.1882 17.2584 9.99961 17.2583C9.66627 17.2583 9.34544 17.1417 9.07461 16.9108L8.96211 16.8058L1.87877 8.88918C1.77221 8.77027 1.70205 8.62326 1.67664 8.46563C1.65123 8.30799 1.67164 8.14638 1.73544 8.00001L1.78544 7.90418L4.29627 3.71918L4.34961 3.64418C4.38775 3.59673 4.43108 3.55368 4.47877 3.51584L4.55294 3.46251L4.62627 3.42084L4.66794 3.40168L4.71794 3.38084L4.80877 3.35418L4.90211 3.33751L4.99961 3.33334H14.9996ZM7.59461 6.61918C7.40516 6.50573 7.17843 6.47211 6.96421 6.5257C6.75 6.57929 6.56581 6.71572 6.45211 6.90501L5.95211 7.73834L5.90211 7.83501C5.83833 7.98208 5.81832 8.14442 5.84448 8.30258C5.87064 8.46073 5.94186 8.60798 6.04961 8.72668L7.71627 10.56L7.79127 10.6333C7.94553 10.7653 8.14267 10.8365 8.34567 10.8334C8.54868 10.8304 8.74358 10.7533 8.89377 10.6167L8.96627 10.5417C9.09827 10.3874 9.16942 10.1903 9.16635 9.98728C9.16328 9.78427 9.08621 9.58937 8.94961 9.43918L7.69877 8.06418L7.88044 7.76168L7.92627 7.67584C8.01002 7.48966 8.0225 7.27922 7.96137 7.08444C7.90023 6.88967 7.76972 6.72411 7.59461 6.61918Z" fill="#FFC218"/>
</g>
<defs>
<clipPath id="clip0_288_1939">
<rect width="20" height="20" fill="white"/>
</clipPath>
</defs>
</svg>
